# xmcd CD database file
#
# Track frame offsets:
#	150
#	19905
#	42217
#	49667
#	74795
#	105142
#	126335
#	145292
#	166347
#	185780
#
# Disc length: 2821 seconds
#
# Revision: 0
# Processed by: cddbd v1.5PL3 Copyright (c) Steve Scherf et al.
# Submitted via: CDex 1.51
#
DISCID=900b030a
DTITLE=Kenny Drew - Portrait
DYEAR=1900
DGENRE=Jazz
TTITLE0=More
TTITLE1=When You Wish Upon A Star
TTITLE2=Oboe Concerto D Minor
TTITLE3=The Way We Were
TTITLE4=Autumn Leaves
TTITLE5=Moonlight Sonata
TTITLE6=Dream
TTITLE7=My Funny Valentine
TTITLE8=Spring Is Here
TTITLE9=Angel Eyes
EXTD=
EXTT0=
EXTT1=
EXTT2=
EXTT3=
EXTT4=
EXTT5=
EXTT6=
EXTT7=
EXTT8=
EXTT9=
PLAYORDER=
